<svg xmlns="http://www.w3.org/2000/svg" height="24" viewBox="0 0 24 24" width="24"><path d="M12 2C6.48 2 2 6.48 2 12s4.48 10 10 10 10-4.48 10-10S17.52 2 12 2zm0 18c-4.41 0-8-3.59-8-8s3.59-8 8-8 8 3.59 8 8-3.59 8-8 8z"/><path d="M14.21 7.5c-.32-.04-.65-.04-1.23-.04-1.57 0-3.09.83-3.84 2.18-.81 1.42-.42 3.51.57 4.67.4.47.88.94 1.45.94.55 0 .93-.44 1.4-.91.43-.43.71-.97.94-1.46.06-.13.1-.26.15-.39h-2.11c-1.1 0-1.89-.95-1.89-2.09 0-1.13.79-2.08 1.89-2.08h2.07zm-2.16 2.72c.4 0 .73.32.73.72s-.33.72-.73.72-.73-.32-.73-.72.33-.72.73-.72zM15.5 12c0 1.93-1.57 3.5-3.5 3.5S8.5 13.93 8.5 12s1.57-3.5 3.5-3.5 3.5 1.57 3.5 3.5z"/></svg>
