<svg xmlns="http://www.w3.org/2000/svg" height="24" viewBox="0 0 24 24" width="24"><path d="M20 4H4c-1.11 0-1.99.89-1.99 2L2 18c0 1.11.89 2 2 2h16c1.11 0 2-.89 2-2V6c0-1.11-.89-2-2-2zm-1 14H5c-.55 0-1-.45-1-1V7c0-.55.45-1 1-1h14c.55 0 1 .45 1 1v10c0 .55-.45 1-1 1z"/><path d="M12.35 15.22c.41 0 .75-.34.75-.75s-.34-.75-.75-.75-.75.34-.75.75.34.75.75.75z" fill="#3f51b5"/><path d="M13.26 11.23c0-.49-.39-.88-.88-.88H9.37v1.76h2.15c.49 0 .88-.39.88-.88z" fill="#4caf50"/><path d="M14.75 14.28c0-.62-.51-1.12-1.12-1.12h-2.1v2.24h2.1c.62 0 1.12-.51 1.12-1.12z" fill="#ffc107"/><path d="M12 9.53H9.37v1.76H12V9.53z" fill="#4caf50"/><path d="M15.88 12.3c0-1.07-.86-1.94-1.94-1.94h-4.57v3.88h4.57c1.07 0 1.94-.87 1.94-1.94z" fill="#ff9800"/><path d="M12.35 15.22c.41 0 .75-.34.75-.75s-.34-.75-.75-.75-.75.34-.75.75.34.75.75.75z" fill="#3f51b5"/><path d="M14.75 14.28c0-.62-.51-1.12-1.12-1.12h-2.1v2.24h2.1c.62 0 1.12-.51 1.12-1.12z" fill="#ffc107"/><path d="M15.88 12.3c0-1.07-.86-1.94-1.94-1.94h-4.57v3.88h4.57c1.07 0 1.94-.87 1.94-1.94z" fill="#ff9800"/><path d="M9.37 13.38V9.53h2.63c.49 0 .88.39.88.88s-.39.88-.88.88H9.37z" fill="#4caf50"/><path d="M19 12.3c0-2.6-2.1-4.7-4.7-4.7H8.38v9.4H14.3c2.6 0 4.7-2.1 4.7-4.7zm-6.65 2.8H9.37v-5.6h2.98c1.55 0 2.8 1.25 2.8 2.8s-1.25 2.8-2.8 2.8z" fill="#f44336"/></svg>