<svg xmlns="http://www.w3.org/2000/svg" viewBox="0 0 24 24" fill="white" width="60px" height="20px"><path d="M7.42087 18.2397H4.32187L7.00587 6.13174H10.1049L7.42087 18.2397ZM17.4769 10.4217C17.4769 8.25474 14.3979 8.31274 14.4559 7.23474C14.4929 6.67874 14.9969 6.27674 15.6889 6.27674C16.0379 6.27674 16.9459 6.46774 16.9459 6.46774L17.5859 6.18974L17.9409 3.69374L17.7509 3.59374C17.1689 3.32674 16.2029 3 15.0119 3C12.5659 3 10.7419 4.38574 10.7309 6.77974C10.7309 8.44474 12.0369 9.38074 13.0449 9.87374C14.0529 10.3557 14.4229 10.7157 14.4229 11.2717C14.4229 11.9857 13.6269 12.2927 12.8729 12.2927C11.6499 12.2927 10.8759 11.9567 10.8759 11.9567L10.2359 12.2347L9.88087 14.7307L10.0709 14.8307C10.6529 15.0977 11.8539 15.4297 13.2219 15.4297C15.8959 15.4297 17.4769 14.1527 17.4769 11.9277V10.4217ZM23.3289 18.2397H20.7229L18.3049 3.5H21.4039L23.3289 18.2397ZM18.0649 6.13174L16.4839 12.7217L14.9029 6.13174H18.0649Z"/></svg>
